<svg width="48" height="48" viewBox="0 0 48 48" fill="none" xmlns="http://www.w3.org/2000/svg">
<circle cx="24" cy="24" r="18" fill="black"/>
<path d="M15 31H33M17 19C17 18.7348 17.1054 18.4804 17.2929 18.2929C17.4804 18.1054 17.7348 18 18 18H30C30.2652 18 30.5196 18.1054 30.7071 18.2929C30.8946 18.4804 31 18.7348 31 19V27C31 27.2652 30.8946 27.5196 30.7071 27.7071C30.5196 27.8946 30.2652 28 30 28H18C17.7348 28 17.4804 27.8946 17.2929 27.7071C17.1054 27.5196 17 27.2652 17 27V19Z" stroke="#FFDE02" stroke-width="2" stroke-linecap="round" stroke-linejoin="round"/>
</svg>
