<svg width="38" height="20" viewBox="0 0 38 20" fill="none" xmlns="http://www.w3.org/2000/svg">
<path d="M0 2C0 0.895431 0.895431 0 2 0H36C37.1046 0 38 0.895431 38 2V18C38 19.1046 37.1046 20 36 20H2C0.89543 20 0 19.1046 0 18V2Z" fill="#6C8595" fill-opacity="0.08"/>
<path d="M7.21948 5.432H8.58748L11.3475 12.692L14.1555 5.432H15.4755V14H14.4555V7.244L11.7675 14H10.8675L8.22748 7.256V14H7.21948V5.432ZM19.9679 6.416H17.1359V5.432H23.9159V6.416H21.0719V14H19.9679V6.416ZM29.895 11.348C29.895 10.804 29.763 10.368 29.499 10.04C29.243 9.704 28.815 9.536 28.215 9.536C27.847 9.536 27.523 9.596 27.243 9.716C26.971 9.828 26.723 10.004 26.499 10.244H25.587L25.959 5.708H30.471V6.656H26.835L26.607 9.236C26.855 9.044 27.119 8.904 27.399 8.816C27.687 8.72 28.023 8.672 28.407 8.672C29.007 8.672 29.491 8.796 29.859 9.044C30.235 9.284 30.511 9.604 30.687 10.004C30.863 10.404 30.951 10.848 30.951 11.336C30.951 12.28 30.703 12.996 30.207 13.484C29.719 13.972 29.059 14.216 28.227 14.216C26.491 14.216 25.555 13.436 25.419 11.876H26.451C26.539 12.364 26.711 12.724 26.967 12.956C27.231 13.18 27.643 13.292 28.203 13.292C28.731 13.292 29.143 13.136 29.439 12.824C29.743 12.504 29.895 12.012 29.895 11.348Z" fill="#141D22"/>
</svg>
