<!-- by TradingView --><svg width="56" height="56" fill="none" xmlns="http://www.w3.org/2000/svg"><path fill="#447EB7" d="M0 0h56v56H0z"/><path d="M8 36h11.164v-2.594H12.29v-.128l3.246-3.204c2.676-2.454 3.568-3.676 3.568-5.552v-.021c0-2.636-2.257-4.501-5.535-4.501s-5.724 1.928-5.724 4.843V25h3.01l.01-.168c.043-1.393 1.135-2.314 2.726-2.314 1.375 0 2.343.9 2.353 2.165v.022c0 1.071-.419 1.832-2.418 3.697L8 33.514V36ZM27.39 36c3.934 0 6.32-3.076 6.32-7.995v-.021c0-4.919-2.386-7.984-6.32-7.984-3.933 0-6.32 3.065-6.32 7.984v.021c0 4.92 2.387 7.995 6.32 7.995Zm0-2.593c-1.934 0-3.041-2.004-3.041-5.402v-.021c0-3.397 1.107-5.39 3.042-5.39 1.934 0 3.041 1.993 3.041 5.39v.021c0 3.398-1.107 5.402-3.041 5.402ZM41.836 36c3.933 0 6.32-3.076 6.32-7.995v-.021c0-4.919-2.387-7.984-6.32-7.984-3.934 0-6.32 3.065-6.32 7.984v.021c0 4.92 2.386 7.995 6.32 7.995Zm0-2.593c-1.935 0-3.042-2.004-3.042-5.402v-.021c0-3.397 1.107-5.39 3.042-5.39 1.934 0 3.041 1.993 3.041 5.39v.021c0 3.398-1.107 5.402-3.041 5.402Z" fill="#fff"/></svg>